<mxfile host="app.diagrams.net" modified="2021-10-28T16:42:31.144Z" agent="5.0 (Windows NT 10.0; Win64; x64) AppleWebKit/537.36 (KHTML, like Gecko) Chrome/95.0.4638.54 Safari/537.36" etag="dBM2rRLsSYhTzKHzlql8" version="15.5.9" type="github">
  <diagram id="kgpKYQtTHZ0yAKxKKP6v" name="Page-1">
    <mxGraphModel dx="1038" dy="579" grid="1" gridSize="10" guides="1" tooltips="1" connect="1" arrows="1" fold="1" page="1" pageScale="1" pageWidth="850" pageHeight="1100" math="0" shadow="0">
      <root>
        <mxCell id="0" />
        <mxCell id="1" parent="0" />
        <mxCell id="3nuBFxr9cyL0pnOWT2aG-1" value="Pantalla de login" style="shape=umlLifeline;perimeter=lifelinePerimeter;container=1;collapsible=0;recursiveResize=0;rounded=0;shadow=0;strokeWidth=1;" parent="1" vertex="1">
          <mxGeometry x="170" y="80" width="100" height="300" as="geometry" />
        </mxCell>
        <mxCell id="3nuBFxr9cyL0pnOWT2aG-2" value="" style="points=[];perimeter=orthogonalPerimeter;rounded=0;shadow=0;strokeWidth=1;" parent="3nuBFxr9cyL0pnOWT2aG-1" vertex="1">
          <mxGeometry x="45" y="70" width="10" height="80" as="geometry" />
        </mxCell>
        <mxCell id="yT-QQWDRAXYVvKtNAPEJ-19" value="" style="points=[];perimeter=orthogonalPerimeter;rounded=0;shadow=0;strokeWidth=1;" vertex="1" parent="3nuBFxr9cyL0pnOWT2aG-1">
          <mxGeometry x="45" y="180" width="10" height="100" as="geometry" />
        </mxCell>
        <mxCell id="3nuBFxr9cyL0pnOWT2aG-5" value="Tabla de horarios" style="shape=umlLifeline;perimeter=lifelinePerimeter;container=1;collapsible=0;recursiveResize=0;rounded=0;shadow=0;strokeWidth=1;" parent="1" vertex="1">
          <mxGeometry x="355" y="80" width="100" height="300" as="geometry" />
        </mxCell>
        <mxCell id="yT-QQWDRAXYVvKtNAPEJ-21" value="" style="points=[];perimeter=orthogonalPerimeter;rounded=0;shadow=0;strokeWidth=1;" vertex="1" parent="3nuBFxr9cyL0pnOWT2aG-5">
          <mxGeometry x="45" y="175" width="10" height="95" as="geometry" />
        </mxCell>
        <mxCell id="3nuBFxr9cyL0pnOWT2aG-8" value="IngresoOp()" style="verticalAlign=bottom;endArrow=block;entryX=0;entryY=0;shadow=0;strokeWidth=1;" parent="1" source="3nuBFxr9cyL0pnOWT2aG-2" target="3nuBFxr9cyL0pnOWT2aG-6" edge="1">
          <mxGeometry relative="1" as="geometry">
            <mxPoint x="275" y="160" as="sourcePoint" />
          </mxGeometry>
        </mxCell>
        <mxCell id="3nuBFxr9cyL0pnOWT2aG-9" value="LogOut()" style="verticalAlign=bottom;endArrow=block;shadow=0;strokeWidth=1;" parent="1" source="3nuBFxr9cyL0pnOWT2aG-6" target="3nuBFxr9cyL0pnOWT2aG-1" edge="1">
          <mxGeometry x="-0.1136" relative="1" as="geometry">
            <mxPoint x="240" y="200" as="sourcePoint" />
            <Array as="points">
              <mxPoint x="350" y="220" />
            </Array>
            <mxPoint as="offset" />
          </mxGeometry>
        </mxCell>
        <mxCell id="yT-QQWDRAXYVvKtNAPEJ-3" value="" style="edgeStyle=orthogonalEdgeStyle;rounded=0;orthogonalLoop=1;jettySize=auto;html=1;" edge="1" parent="1" source="yT-QQWDRAXYVvKtNAPEJ-1" target="yT-QQWDRAXYVvKtNAPEJ-2">
          <mxGeometry relative="1" as="geometry" />
        </mxCell>
        <mxCell id="yT-QQWDRAXYVvKtNAPEJ-1" value="Operario" style="shape=umlActor;verticalLabelPosition=bottom;verticalAlign=top;html=1;outlineConnect=0;" vertex="1" parent="1">
          <mxGeometry x="60" y="30" width="30" height="60" as="geometry" />
        </mxCell>
        <mxCell id="3nuBFxr9cyL0pnOWT2aG-6" value="" style="points=[];perimeter=orthogonalPerimeter;rounded=0;shadow=0;strokeWidth=1;" parent="1" vertex="1">
          <mxGeometry x="400" y="160" width="10" height="70" as="geometry" />
        </mxCell>
        <mxCell id="yT-QQWDRAXYVvKtNAPEJ-2" value="" style="points=[];perimeter=orthogonalPerimeter;rounded=0;shadow=0;strokeWidth=1;" vertex="1" parent="1">
          <mxGeometry x="70" y="150" width="10" height="80" as="geometry" />
        </mxCell>
        <mxCell id="3nuBFxr9cyL0pnOWT2aG-3" value="IngresarDatos()" style="verticalAlign=bottom;startArrow=oval;endArrow=block;startSize=8;shadow=0;strokeWidth=1;exitX=0.96;exitY=0.133;exitDx=0;exitDy=0;exitPerimeter=0;" parent="1" target="3nuBFxr9cyL0pnOWT2aG-2" edge="1" source="yT-QQWDRAXYVvKtNAPEJ-2">
          <mxGeometry relative="1" as="geometry">
            <mxPoint x="100" y="150" as="sourcePoint" />
            <Array as="points">
              <mxPoint x="150" y="160" />
            </Array>
          </mxGeometry>
        </mxCell>
        <mxCell id="yT-QQWDRAXYVvKtNAPEJ-8" value="Administrador&lt;br&gt;" style="shape=umlActor;verticalLabelPosition=bottom;verticalAlign=top;html=1;outlineConnect=0;" vertex="1" parent="1">
          <mxGeometry x="60" y="400" width="30" height="60" as="geometry" />
        </mxCell>
        <mxCell id="yT-QQWDRAXYVvKtNAPEJ-9" value="" style="points=[];perimeter=orthogonalPerimeter;rounded=0;shadow=0;strokeWidth=1;" vertex="1" parent="1">
          <mxGeometry x="70" y="250" width="10" height="80" as="geometry" />
        </mxCell>
        <mxCell id="yT-QQWDRAXYVvKtNAPEJ-10" value="" style="edgeStyle=orthogonalEdgeStyle;rounded=0;orthogonalLoop=1;jettySize=auto;html=1;" edge="1" parent="1">
          <mxGeometry relative="1" as="geometry">
            <mxPoint x="74.5" y="350" as="sourcePoint" />
            <mxPoint x="74.5" y="330" as="targetPoint" />
            <Array as="points">
              <mxPoint x="74.5" y="390" />
              <mxPoint x="74.5" y="390" />
            </Array>
          </mxGeometry>
        </mxCell>
        <mxCell id="yT-QQWDRAXYVvKtNAPEJ-13" value="IngresarDatos()" style="verticalAlign=bottom;startArrow=oval;endArrow=block;startSize=8;shadow=0;strokeWidth=1;exitX=0.96;exitY=0.133;exitDx=0;exitDy=0;exitPerimeter=0;" edge="1" parent="1">
          <mxGeometry relative="1" as="geometry">
            <mxPoint x="79.99999999999991" y="270.64" as="sourcePoint" />
            <mxPoint x="215.4" y="270" as="targetPoint" />
            <Array as="points">
              <mxPoint x="150.4" y="270" />
            </Array>
          </mxGeometry>
        </mxCell>
        <mxCell id="yT-QQWDRAXYVvKtNAPEJ-14" value="ingresoAdmin()" style="verticalAlign=bottom;endArrow=block;shadow=0;strokeWidth=1;" edge="1" parent="1">
          <mxGeometry relative="1" as="geometry">
            <mxPoint x="220" y="280.0000000000001" as="sourcePoint" />
            <mxPoint x="400" y="280" as="targetPoint" />
          </mxGeometry>
        </mxCell>
        <mxCell id="yT-QQWDRAXYVvKtNAPEJ-15" value="Base de datos" style="shape=umlLifeline;perimeter=lifelinePerimeter;container=1;collapsible=0;recursiveResize=0;rounded=0;shadow=0;strokeWidth=1;" vertex="1" parent="1">
          <mxGeometry x="510" y="80" width="100" height="300" as="geometry" />
        </mxCell>
        <mxCell id="yT-QQWDRAXYVvKtNAPEJ-16" value="" style="points=[];perimeter=orthogonalPerimeter;rounded=0;shadow=0;strokeWidth=1;" vertex="1" parent="yT-QQWDRAXYVvKtNAPEJ-15">
          <mxGeometry x="45" y="80" width="10" height="160" as="geometry" />
        </mxCell>
        <mxCell id="yT-QQWDRAXYVvKtNAPEJ-17" value="CosultaHorarios()" style="verticalAlign=bottom;endArrow=block;shadow=0;strokeWidth=1;entryX=-0.02;entryY=0.124;entryDx=0;entryDy=0;entryPerimeter=0;" edge="1" parent="yT-QQWDRAXYVvKtNAPEJ-15" target="yT-QQWDRAXYVvKtNAPEJ-16">
          <mxGeometry relative="1" as="geometry">
            <mxPoint x="-100" y="100.00000000000011" as="sourcePoint" />
            <mxPoint x="40" y="100" as="targetPoint" />
          </mxGeometry>
        </mxCell>
        <mxCell id="yT-QQWDRAXYVvKtNAPEJ-18" value="DescargaHorarios()" style="verticalAlign=bottom;endArrow=block;entryX=1;entryY=0;shadow=0;strokeWidth=1;" edge="1" parent="yT-QQWDRAXYVvKtNAPEJ-15">
          <mxGeometry relative="1" as="geometry">
            <mxPoint x="40" y="130" as="sourcePoint" />
            <mxPoint x="-100" y="130" as="targetPoint" />
          </mxGeometry>
        </mxCell>
        <mxCell id="yT-QQWDRAXYVvKtNAPEJ-23" value="ModificarHorarios()" style="verticalAlign=bottom;endArrow=block;shadow=0;strokeWidth=1;entryX=-0.02;entryY=0.124;entryDx=0;entryDy=0;entryPerimeter=0;" edge="1" parent="yT-QQWDRAXYVvKtNAPEJ-15">
          <mxGeometry relative="1" as="geometry">
            <mxPoint x="-99.80000000000001" y="190.16000000000008" as="sourcePoint" />
            <mxPoint x="45" y="190" as="targetPoint" />
          </mxGeometry>
        </mxCell>
        <mxCell id="yT-QQWDRAXYVvKtNAPEJ-24" value="DescargaHorarios()" style="verticalAlign=bottom;endArrow=block;entryX=1;entryY=0;shadow=0;strokeWidth=1;" edge="1" parent="yT-QQWDRAXYVvKtNAPEJ-15">
          <mxGeometry relative="1" as="geometry">
            <mxPoint x="40" y="220" as="sourcePoint" />
            <mxPoint x="-100" y="220" as="targetPoint" />
          </mxGeometry>
        </mxCell>
        <mxCell id="yT-QQWDRAXYVvKtNAPEJ-26" value="LogOut()" style="verticalAlign=bottom;endArrow=block;shadow=0;strokeWidth=1;" edge="1" parent="1">
          <mxGeometry x="-0.1136" relative="1" as="geometry">
            <mxPoint x="400" y="320" as="sourcePoint" />
            <mxPoint x="219.5" y="320" as="targetPoint" />
            <Array as="points">
              <mxPoint x="350" y="320" />
            </Array>
            <mxPoint as="offset" />
          </mxGeometry>
        </mxCell>
      </root>
    </mxGraphModel>
  </diagram>
</mxfile>
